<svg xmlns="http://www.w3.org/2000/svg" viewBox="0 0 32 32">
  <path fill="#000"
    d="M20 14h-1v1h1v-1ZM5 12h1v-1h-.9a5.002 5.002 0 0 1 9.9 1v1h-1v1h-1v-1h-1v1h-1v-2a1 1 0 0 0-1-1H9v2H8v1h1v6a1 1 0 0 0 2 0v-2h4v2a5 5 0 0 1-10 0v-5h1v-1H5v-2Zm3 2H7v1h1v-1Zm18 0h-1v1h1v-1ZM7 13H6v1h1v-1Zm12 0h-1v1h1v-1Zm6 0h-1v1h1v-1ZM8 11H7v1h1v-1Zm4 0h-1v1h1v-1Zm2 0h-1v1h1v-1Zm6 0h-1v1h1v-1Zm6 0h-1v1h1v-1Zm-9-4h4v2h-1v1h1v3h-1v1h1v4.757a1 1 0 0 0 .293.707l.707.707.707-.707a1 1 0 0 0 .284-.575l.009-.132V15h1v-1h-1v-2h1v-1h-1V7h4v6h-1v1h1v4.757a5 5 0 0 1-1.464 3.536l-2.122 2.121a2 2 0 0 1-2.828 0l-2.122-2.121A5 5 0 0 1 17 18.757V15h1v-1h-1v-2h1v-1h-1V7ZM9 9H8v1h1V9Zm4 0h-1v1h1V9Zm12 0h-1v1h1V9ZM32 14v1h-1v-1h1Zm-2 0v1h-1v-1h1ZM2 14v1H1v-1h1Zm1-1v1H2v-1h1Zm-2 0v1H0v-1h1Zm30 0v1h-1v-1h1ZM2 11v1H1v-1h1Zm28 0v1h-1v-1h1Zm2 0v1h-1v-1h1ZM1 9v1H0V9h1Z" />
  <path stroke="#000" fill="none" stroke-linejoin="round" stroke-width="2"
    d="M9 1H4a3 3 0 0 0-3 3v5m22-8h5a3 3 0 0 1 3 3v5M9 31H4a3 3 0 0 1-3-3v-5m22 8h5a3 3 0 0 0 3-3v-5m1-7H0" />
</svg>